<svg aria-hidden="true" style="position: absolute; width: 0; height: 0; overflow: hidden;" version="1.1" xmlns="http://www.w3.org/2000/svg" xmlns:xlink="http://www.w3.org/1999/xlink">
<defs>

<symbol id="training-type-1" viewBox="0 0 35 32">
<path d="M18.489 0.044c-0.034 0.023-1.224 2.055-2.644 4.514l-2.582 4.472-5.229 0.030-3.931 6.807c-2.162 3.744-3.931 6.848-3.931 6.898 0 0.107 2.514 4.481 2.661 4.63 0.095 0.096 0.405 0.102 5.273 0.102h5.172l2.576 4.458 7.906 0.014c4.348 0.008 7.935-0.005 7.97-0.029 0.101-0.067 2.69-4.577 2.683-4.673-0.003-0.048-1.151-2.067-2.55-4.487s-2.554-4.439-2.567-4.487 0.552-1.081 1.254-2.297c1.145-1.982 1.271-2.226 1.22-2.358-0.090-0.234-7.79-13.546-7.863-13.593-0.085-0.055-5.338-0.055-5.419 0zM27.508 6.989l3.788 6.558-2.343 0.015c-1.825 0.012-2.358-0.001-2.414-0.057-0.072-0.074-7.479-12.868-7.537-13.020-0.027-0.071 0.297-0.081 2.343-0.068l2.375 0.015 3.787 6.558zM22.379 7.133c2.035 3.528 3.726 6.456 3.757 6.508 0.045 0.074-0.466 1-2.378 4.314-1.339 2.321-2.464 4.263-2.499 4.315-0.053 0.080-0.12-0.004-0.415-0.518-0.193-0.337-0.727-1.263-1.186-2.058l-0.834-1.446 1.288-2.228c0.708-1.226 1.287-2.258 1.285-2.293s-0.603-1.1-1.337-2.366l-1.335-2.301-2.488-0.015c-1.368-0.008-2.488-0.026-2.488-0.040 0-0.027 4.611-8.026 4.755-8.249 0.048-0.075 0.107-0.113 0.131-0.086s1.709 2.936 3.744 6.463zM19.645 11.425c0.632 1.096 1.158 2.027 1.168 2.071 0.026 0.112-9.837 0.12-9.929 0.008-0.032-0.040-0.53-0.887-1.106-1.884s-1.098-1.896-1.161-1.999l-0.113-0.187h9.992l1.149 1.992zM9.349 11.662c0.632 1.099 1.148 2.037 1.146 2.085-0.005 0.134-7.523 13.12-7.568 13.072-0.022-0.023-0.56-0.945-1.197-2.048l-1.158-2.006 3.061-5.299c-47.537 87.921-46.282 85.779-45.027 83.637l48.81-90.187c0.397-0.688 0.736-1.251 0.753-1.251s0.549 0.899 1.181 1.998zM20.332 14.856c0.705-1.354 0.311-0.678-0.082-0.001l-1.108 2.070-0.648 1.134-5.198 0.003-0.11 0.158c-0.18 0.258-2.558 4.398-2.584 4.5-0.014 0.051 0.506 1.012 1.156 2.135s1.197 2.085 1.218 2.139c0.035 0.092-0.262 0.098-4.807 0.098-4.59 0-4.842-0.005-4.806-0.101 0.021-0.056 1.724-3.019 3.785-6.587l3.746-6.486h9.981l-0.542 0.935zM31.241 14.021c-0.031 0.055-1.155 2.003-2.499 4.329l-2.443 4.228-2.37 0.015c-2.243 0.014-2.368 0.010-2.331-0.086 0.021-0.056 1.141-2.010 2.488-4.344l2.449-4.242h2.381c2.251 0 2.378 0.005 2.326 0.101zM19.698 20.55c0.662 1.147 1.252 2.156 1.312 2.243l0.109 0.158h5.398l0.135-0.216c0.075-0.119 0.635-1.083 1.245-2.143s1.115-1.933 1.12-1.941c0.011-0.014 4.819 8.297 4.854 8.39 0.011 0.029-3.204 0.051-7.568 0.051h-7.587l-2.383-4.122c-1.311-2.267-2.429-4.208-2.485-4.314l-0.102-0.192h4.75l1.203 2.085zM15.878 22.948c1.34 2.323 2.437 4.265 2.44 4.316 0.003 0.092-2.271 4.086-2.327 4.086-0.027 0-4.928-8.456-4.96-8.559-0.022-0.072 2.339-4.15 2.378-4.106 0.019 0.021 1.13 1.939 2.47 4.262zM33.778 27.683c-0.062 0.103-0.573 0.989-1.136 1.97s-1.052 1.816-1.088 1.855c-0.051 0.057-1.625 0.069-7.634 0.058l-7.569-0.015 0.913-1.582c0.502-0.87 1.030-1.782 1.172-2.028l0.259-0.446h15.194l-0.113 0.187z"></path>
</symbol>

<symbol id="training-type-2" viewBox="0 0 37 32">
<path d="M16.255 0.199c-0.284 0.441-16.255 28.165-16.255 28.217 0 0.065 1.702 3.058 1.912 3.364l0.116 0.168 32.697-0.031 1.004-1.737c0.846-1.464 0.995-1.758 0.944-1.867-0.163-0.353-16.246-28.161-16.31-28.202-0.041-0.026-0.962-0.048-2.047-0.048l-1.972-0.001-0.089 0.138zM28.135 14.321c4.383 7.591 7.97 13.822 7.972 13.847s-6.275 0.046-13.948 0.046h-13.951l1.641-2.846 10.477-0.015c7.62-0.011 10.5-0.034 10.56-0.084 0.045-0.038 0.083-0.107 0.083-0.154s-3.181-5.597-7.069-12.334c-3.888-6.737-7.069-12.259-7.069-12.271s0.75-0.015 1.667-0.007l1.667 0.016 7.969 13.801zM23.411 12.761c3.764 6.53 6.884 11.935 6.933 12.011l0.088 0.138-3.349-0-5.235-9.073c-4.574-7.926-5.255-9.075-5.388-9.091-0.142-0.017-0.612 0.78-7.181 12.163-3.866 6.7-7.062 12.226-7.101 12.28-0.061 0.083-0.204-0.129-0.9-1.33l-0.828-1.429 0.159-0.279c0.087-0.153 3.682-6.385 7.989-13.848 6.048-10.481 7.846-13.551 7.9-13.491 0.038 0.043 3.15 5.421 6.915 11.951zM17.316 8.821l0.8 1.385-5.233 9.066c-2.878 4.986-5.233 9.101-5.233 9.145s0.033 0.112 0.073 0.152c0.057 0.057 3.302 0.073 14.234 0.073 7.789 0 14.152 0.021 14.141 0.047s-0.379 0.673-0.816 1.438l-0.796 1.39-15.994 0.001c-9.564 0.001-15.986-0.022-15.974-0.055 0.092-0.25 13.919-24.107 13.953-24.072 0.024 0.025 0.404 0.668 0.844 1.43zM22.514 17.823c2.226 3.861 4.048 7.035 4.048 7.054s-3.691 0.033-8.201 0.033-8.201-0.018-8.201-0.040c0-0.021 1.838-3.228 4.085-7.124 3.032-5.257 4.103-7.066 4.153-7.014 0.038 0.039 1.89 3.23 4.116 7.091z"></path>
</symbol>

<symbol id="training-type-3" viewBox="0 0 28 32">
<path d="M11.656 1.363l-2.356 1.356-0.014 2.543-0.014 2.543-2.138-1.236c-1.176-0.68-2.169-1.245-2.208-1.255-0.057-0.015-4.542 2.536-4.729 2.69-0.045 0.037-0.058 0.646-0.058 2.755v2.707l2.173 1.256c1.195 0.691 2.17 1.274 2.168 1.296s-0.98 0.604-2.173 1.293l-2.168 1.252v2.703c0 2.516 0.006 2.707 0.081 2.772 0.129 0.11 4.614 2.687 4.675 2.686 0.030-0.001 1.027-0.564 2.216-1.252l2.161-1.251 0.013 2.542 0.013 2.542 2.318 1.336c1.275 0.735 2.352 1.336 2.395 1.336s1.12-0.601 2.396-1.336l2.32-1.336 0.013-2.541 0.013-2.541 2.161 1.251c1.189 0.688 2.195 1.246 2.236 1.24s1.123-0.617 2.405-1.358l2.33-1.346v-5.447l-2.168-1.252c-1.192-0.689-2.167-1.272-2.166-1.295s0.976-0.606 2.168-1.294l2.166-1.251v-5.422l-0.128-0.088c-0.161-0.111-4.379-2.547-4.532-2.617-0.102-0.046-0.32 0.069-2.293 1.208l-2.18 1.26-0.014-2.545-0.014-2.545-2.098-1.208c7.074 3.787 6.304 3.338 5.534 2.889l-8.149-4.392-2.356 1.355zM16.026 1.562c1.091 0.629 2.032 1.174 2.092 1.212 0.105 0.066 0.042 0.107-1.859 1.208-1.082 0.627-2.034 1.172-2.115 1.211l-0.148 0.072-2.090-1.204c-1.15-0.662-2.077-1.218-2.060-1.236 0.046-0.050 4.115-2.403 4.158-2.405 0.021-0.001 0.931 0.512 2.022 1.141zM11.782 4.381l2.045 1.184 0.012 5.072c0.007 2.79-0.004 5.072-0.023 5.072s-0.966-0.54-2.103-1.199l-2.068-1.199-0.012-5.080c-0.009-4.059-0-5.076 0.046-5.057 0.032 0.013 0.979 0.556 2.103 1.207zM18.405 8.153c0 2.746 0.011 5.021 0.024 5.055 0.016 0.043-0.616 0.434-2.034 1.256-1.132 0.656-2.095 1.207-2.139 1.224-0.076 0.030-0.080-0.242-0.069-5.046l0.012-5.077 2.068-1.199c1.137-0.659 2.084-1.201 2.103-1.202s0.035 2.243 0.035 4.989zM7.067 6.926c1.161 0.67 2.138 1.24 2.17 1.265 0.089 0.071 0.084 4.881-0.005 4.86-0.127-0.030-8.538-4.932-8.51-4.959 0.084-0.084 4.142-2.412 4.184-2.4 0.027 0.008 1 0.563 2.161 1.233zM25.221 6.874c1.146 0.662 2.078 1.221 2.070 1.243-0.017 0.047-8.473 4.952-8.496 4.929-0.009-0.009-0.018-1.102-0.020-2.43l-0.004-2.414 2.176-1.264c1.197-0.695 2.18-1.265 2.184-1.266s0.945 0.54 2.091 1.202zM4.916 10.966l4.195 2.43-4.204 2.414-0.142-0.071c-0.078-0.039-1.062-0.603-2.187-1.254l-2.045-1.183-0.012-2.451-0.012-2.451 0.105 0.067c0.058 0.037 1.993 1.161 4.301 2.497zM27.48 13.297c-0.042 0.040-4.128 2.403-4.266 2.466-0.078 0.036-0.449-0.163-2.133-1.142-1.122-0.652-2.055-1.202-2.075-1.223s1.881-1.147 4.224-2.504l4.261-2.466 0.012 2.417c0.007 1.329-0.004 2.432-0.023 2.451zM21.286 15.138c-4.66-2.48-3.301-1.683-1.941-0.888l6.1 3.294c0.971 0.558 1.792 1.039 1.824 1.068 0.045 0.040-0.429 0.33-2.018 1.234-1.142 0.65-2.11 1.182-2.15 1.182-0.083 0-8.694-4.94-8.694-4.987 0-0.017 0.945-0.579 2.1-1.248l2.1-1.217 0.143 0.087c0.078 0.048 1.219 0.712 2.536 1.477zM11.556 14.81c1.134 0.656 2.061 1.208 2.061 1.227 0 0.039-8.562 4.97-8.687 5.002-0.052 0.014-0.872-0.434-2.16-1.178-1.841-1.064-2.067-1.207-1.994-1.261 0.046-0.033 1.474-0.862 3.174-1.841 4.965-2.861 5.457-3.141 5.502-3.141 0.024 0 0.97 0.537 2.104 1.192zM13.85 18.772v2.412l-4.287 2.476c-2.358 1.362-4.335 2.506-4.392 2.543l-0.105 0.067 0.012-2.449 0.012-2.449 4.346-2.504c2.39-1.377 4.361-2.505 4.38-2.506s0.035 1.083 0.035 2.409zM18.59 18.866l4.346 2.502 0.012 2.444 0.012 2.444-8.785-5.076v-2.41c0-1.326 0.016-2.409 0.035-2.408s1.99 1.128 4.38 2.504zM2.765 20.255l1.906 1.102 0.012 2.428c0.007 1.335-0.001 2.428-0.016 2.428s-0.957-0.536-2.092-1.192l-2.063-1.192v-4.872l0.174 0.098c0.096 0.054 1.032 0.594 2.080 1.2zM27.514 21.396v2.434l-2.061 1.191c-1.134 0.655-2.075 1.191-2.092 1.191s-0.025-1.101-0.018-2.447l0.012-2.447 2.068-1.177c1.138-0.648 2.074-1.178 2.080-1.178s0.011 1.095 0.011 2.433zM13.85 26.561c0 2.722-0.009 4.95-0.020 4.95s-0.957-0.542-2.103-1.205l-2.083-1.205v-5.093l2.068-1.198c1.138-0.659 2.084-1.198 2.103-1.198s0.035 2.226 0.035 4.949zM16.313 22.809l2.068 1.196v5.099l-2.083 1.203c-1.145 0.662-2.092 1.203-2.103 1.203s-0.020-2.227-0.020-4.95c0-2.722 0.016-4.949 0.035-4.949s0.966 0.539 2.103 1.197z"></path>
</symbol>

<symbol id="training-type-4" viewBox="0 0 36 32">
<path d="M3.342 1.848l-3.133 1.778-0.015 10.322-0.015 10.322 3.204 1.786c1.762 0.982 3.232 1.786 3.268 1.786s1.547-0.819 3.359-1.82l3.295-1.82 0.017-0.829 0.017-0.829 4.476 4.693c2.462 2.581 4.504 4.693 4.538 4.693s3.055-1.727 6.714-3.84l6.653-3.84 0.015-10.292 0.015-10.292-3.217-1.803c-1.769-0.992-3.253-1.802-3.298-1.801s-1.545 0.844-3.334 1.872l-3.253 1.869-0.030 4.953-0.030 4.953-9.251-10.027-3.342-1.811c-1.838-0.996-3.382-1.808-3.432-1.806s-1.499 0.805-3.223 1.782zM10.276 2.728l2.726 1.479 8.217 8.923c4.519 4.907 8.375 9.083 8.569 9.28l0.352 0.358-0-7.49v-7.49l-3.282-1.88c-1.805-1.034-3.282-1.893-3.28-1.91 0.002-0.023 2.969-1.728 5.365-3.083l0.333-0.188 5.789 3.245 0.015 9.972 0.015 9.972-12.325 7.111-0.030-3.424-0.030-3.425-15.816-16.998-2.879-1.663c-1.583-0.915-2.857-1.685-2.83-1.712s1.254-0.73 2.727-1.562l2.679-1.514 0.48 0.26c0.264 0.143 1.706 0.925 3.206 1.739zM3.876 6.143l2.593 1.495 15.615 16.772-0.015 3.18-0.015 3.18-7.816-8.193c-4.299-4.506-7.837-8.193-7.863-8.193s-0.053 2.832-0.062 6.292l-0.015 6.292-2.626-1.462c-1.444-0.804-2.686-1.501-2.76-1.549l-0.134-0.087v-19.518l0.254 0.148c0.139 0.082 1.42 0.821 2.846 1.643zM26.404 6.362l3.079 1.766v13.028l-0.207-0.208c-0.114-0.114-1.523-1.631-3.13-3.371l-2.922-3.163-0.004-4.909c-0.002-2.888 0.018-4.909 0.050-4.909 0.030 0 1.44 0.795 3.133 1.766zM10.227 19.288l2.426 2.547v2.016l-2.58 1.425c-12.671 6.57-13.599 7.090-14.526 7.612l11.435-5.901v-11.080l0.409 0.417c0.225 0.229 1.5 1.563 2.835 2.965z"></path>
</symbol>

<symbol id="training-type-5" viewBox="0 0 32 32">
<path d="M15.162 0.003c-3.159 0.177-6.323 1.299-9.064 3.495-7.122 5.705-8.039 16.21-2.015 23.063s16.558 7.29 23.129 0.96c0.006-0.002 0.009-0.004 0.013-0.005l-0.001 0.001 0.129-0.128c0-0 0-0 0-0s0-0 0-0v0c1.376-1.383 1.374-3.625-0.005-5.005-1.378-1.378-3.617-1.381-5-0.009-0.002 0-0.003 0-0.005 0.001l0.001-0c-2.531 2.478-6.288 3.222-9.573 1.895s-5.471-4.47-5.572-8.011c-0.101-3.541 1.903-6.804 5.106-8.316 3.202-1.511 6.993-0.984 9.662 1.343l0.436 0.438c0.346 0.352 0.343 0.909-0.005 1.258s-0.908 0.351-1.259 0.004l-0.614-0.616c-0.016-0.009-0.034-0.017-0.053-0.022l-0.002-0c-0.009-0.010-0.012-0.024-0.022-0.033-0.005-0.005-0.011-0.010-0.017-0.015l-0.001-0c-4.793-3.63-11.681-0.051-11.466 5.958s7.339 9.087 11.862 5.125c0.007-0.006 0.013-0.012 0.019-0.019l0-0c0.461-0.514 0.456-1.299-0.011-1.808-0.001-0.002-0.001-0.002-0.001-0.002l0.001 0.001c-0.272-0.294-0.645-0.402-0.989-0.39s-0.666 0.132-0.9 0.324c-2.917 2.371-7.256 0.352-7.32-3.407s4.204-5.925 7.2-3.653c0.037 0.029 0.085 0.046 0.136 0.046 0.047 0 0.090-0.014 0.126-0.038l-0.001 0.001-0.147 0.098 0.268 0.268c-0-0 0 0 0 0l0.001 0.001c1.385 1.365 3.617 1.357 4.992-0.018s1.383-3.608 0.018-4.993c0 0-0-0-0-0l-0.001-0.001-0.044-0.045c-0.017-0.031-0.025-0.068-0.049-0.094-0.003-0.003-0.006-0.006-0.009-0.009l-0-0c-3.365-3.22-8.335-4.109-12.608-2.256s-7.020 6.089-6.969 10.746c0.051 4.657 2.89 8.832 7.202 10.591s9.262 0.761 12.555-2.532c0.005-0.007 0.011-0.014 0.016-0.022l0.001-0.001c0.338-0.308 0.849-0.313 1.191-0.007s0.394 0.813 0.127 1.184c-4.158 4.236-10.614 5.215-15.84 2.397-8.23-4.438-9.459-15.729-2.376-21.834s18.069-3.222 21.243 5.573c0.089 0.249 0.237 0.557 0.486 0.809 0.248 0.251 0.614 0.439 1.069 0.412 0.793-0.006 1.373-0.774 1.157-1.538-0.030-0.087-0.109-0.15-0.203-0.154l-0-0 0.202 0.147c-2.332-7.366-9.257-11.546-16.208-11.156zM15.193 0.446c6.753-0.383 13.474 3.679 15.745 10.845 0.137 0.489-0.221 0.963-0.73 0.964-0.005 0-0.010 0-0.015 0.001l0.001-0c-0.328 0.021-0.546-0.098-0.727-0.281s-0.308-0.436-0.383-0.645c0-0 0-0 0-0s0-0 0-0v0c-3.277-9.078-14.65-12.062-21.961-5.761s-6.039 17.99 2.456 22.571c5.407 2.915 12.093 1.9 16.39-2.489 0.007-0.007 0.013-0.015 0.019-0.023l0-0.001c0.413-0.555 0.334-1.339-0.182-1.8s-1.303-0.452-1.809 0.020c-0.012 0.012-0.022 0.025-0.031 0.039l-0.001 0.001c-3.166 3.155-7.912 4.11-12.052 2.422-4.146-1.691-6.873-5.701-6.922-10.179s2.589-8.546 6.697-10.328c4.105-1.78 8.875-0.928 12.11 2.163 0.010 0.038 0.028 0.070 0.053 0.097l-0-0 0.049 0.050c1.193 1.212 1.186 3.153-0.017 4.356s-3.144 1.21-4.356 0.017l-0.001-0.001-0.397-0.398c-0.035-0.024-0.078-0.038-0.125-0.038-0.031 0-0.061 0.006-0.087 0.018l0.001-0.001 0.181 0.005c-3.272-2.481-7.993-0.086-7.923 4.020s4.87 6.339 8.055 3.748c0-0 0.001-0.001 0.001-0.001v0c0.142-0.117 0.388-0.214 0.629-0.222s0.47 0.061 0.642 0.246c0.31 0.338 0.313 0.849 0.012 1.193-4.261 3.715-10.899 0.841-11.1-4.813-0.202-5.66 6.229-9.001 10.744-5.582l-0.018-0.015c-0.005-0.005-0.009-0.011-0.011-0.017 0.026 0.050 0.069 0.089 0.121 0.108l0.002 0.001 0.568 0.57c0 0 0.001 0.001 0.001 0.001v0c0.524 0.517 1.374 0.514 1.894-0.006s0.523-1.37 0.007-1.894c0.001 0 0.001 0 0 0l-0.001-0.001-0.444-0.446c-0.004-0.004-0.007-0.007-0.011-0.011l-0-0c-2.803-2.446-6.789-3.001-10.154-1.414s-5.471 5.018-5.364 8.736c0.106 3.719 2.404 7.024 5.854 8.417s7.397 0.611 10.055-1.99c0.002-0 0.003-0 0.004-0.001l-0.001 0c1.21-1.205 3.161-1.203 4.368 0.005s1.209 3.158 0.005 4.368l-0.062 0.062h0.087c-0.061 0-0.116 0.024-0.156 0.063l0-0c-6.391 6.158-16.621 5.734-22.48-0.931s-4.968-16.866 1.958-22.414c2.667-2.137 5.743-3.229 8.813-3.403zM23.791 7.949c0.003 0.005 0.005 0.010 0.008 0.014l-0.001-0.001-0.001-0.001c-0.003-0.003-0.005-0.008-0.006-0.012z"></path>
</symbol>

<symbol id="training-type-6" viewBox="0 0 37 32">
<path d="M9.269 0.109c-0.039 0.025-0.754 1.23-1.591 2.678-1.381 2.391-1.514 2.646-1.447 2.774 0.041 0.077 0.708 1.24 1.483 2.584s1.409 2.46 1.409 2.48-1.351 0.044-3.002 0.053l-3.002 0.016-1.526 2.643c-1.329 2.302-1.517 2.66-1.459 2.774 0.21 0.409 2.919 5.077 2.99 5.154 0.073 0.079 0.521 0.097 3.039 0.123l2.954 0.031-1.471 2.551c-0.95 1.647-1.458 2.586-1.433 2.651 0.077 0.203 2.992 5.218 3.058 5.261 0.037 0.025 1.434 0.046 3.103 0.046l3.035 0.001 0.151-0.231c0.083-0.127 0.751-1.271 1.484-2.543s1.353-2.332 1.378-2.357c0.024-0.025 0.694 1.081 1.488 2.458s1.481 2.542 1.528 2.588c0.069 0.069 0.636 0.084 3.13 0.084h3.046l0.144-0.231c0.373-0.598 2.893-5.027 2.913-5.119 0.012-0.058-0.638-1.242-1.444-2.632l-1.466-2.527 2.946-0.031c2.509-0.026 2.959-0.045 3.036-0.123 0.095-0.097 3.058-5.206 3.058-5.272 0-0.047-2.811-4.927-2.973-5.161l-0.117-0.169h-2.985c-1.642 0-2.985-0.014-2.985-0.030s0.668-1.186 1.485-2.599c1.349-2.333 1.478-2.582 1.416-2.719-0.163-0.358-2.929-5.107-3.015-5.177-0.073-0.059-0.781-0.077-3.068-0.077-1.635 0-3.014 0.016-3.064 0.035s-0.753 1.183-1.561 2.585c-1.097 1.902-1.488 2.532-1.538 2.477-0.037-0.040-0.673-1.128-1.413-2.416s-1.398-2.418-1.462-2.512l-0.116-0.169-3.032 0.001c-1.667 0.001-3.063 0.021-3.101 0.046zM16.694 3.086l1.497 2.593-1.37 2.374c-1.137 1.97-1.381 2.355-1.432 2.261-0.034-0.062-1.287-2.234-2.784-4.828s-2.755-4.778-2.796-4.854l-0.074-0.139h5.462l1.498 2.593zM28.739 2.826c0.737 1.282 1.341 2.349 1.341 2.372s-1.224 0.035-2.72 0.026l-2.72-0.016-1.348-2.332c-0.742-1.282-1.348-2.343-1.348-2.358s1.227-0.025 2.728-0.025l2.727 0.001 1.341 2.33zM12.297 5.775c1.593 2.766 2.888 5.060 2.877 5.098-0.066 0.22-2.686 4.659-2.726 4.618-0.139-0.144-5.795-10.023-5.779-10.093 0.029-0.122 2.657-4.659 2.697-4.655 0.019 0.001 1.338 2.266 2.932 5.032zM22.963 3.137l1.327 2.299-2.914 5.048c-1.603 2.777-2.928 5.048-2.945 5.047s-0.639-1.058-1.382-2.349c-1.057-1.836-1.338-2.37-1.29-2.448 0.033-0.055 1.346-2.328 2.917-5.050s2.879-4.926 2.908-4.897c0.029 0.029 0.649 1.087 1.379 2.351zM30.070 5.724c-0.011 0.029-0.656 1.153-1.432 2.496l-1.411 2.443h-2.707c-2.314 0-2.705-0.013-2.687-0.088 0.011-0.048 0.644-1.171 1.407-2.495l1.387-2.407 2.733-0.002c1.52-0.001 2.723 0.023 2.712 0.052zM10.735 13.395c0.741 1.282 1.347 2.343 1.347 2.358s-1.292 0.021-2.871 0.012l-2.871-0.016-1.141-1.972c0.529 1.034 0.079 0.263-0.369-0.509l-0.989-1.849-0.216-0.386 5.763 0.032 1.347 2.331zM34.834 13.376c0.738 1.271 1.343 2.332 1.345 2.358s-2.625 0.046-5.837 0.045l-5.841-0.001-1.306-2.264c-0.718-1.245-1.325-2.313-1.347-2.372-0.039-0.103 0.252-0.107 5.802-0.092l5.843 0.015 1.341 2.312zM4.676 13.696c0.717 1.244 1.303 2.278 1.303 2.297 0 0.052-2.596 4.55-2.676 4.636-0.050 0.054-0.395-0.495-1.331-2.118-0.695-1.205-1.302-2.268-1.349-2.363-0.083-0.168-0.051-0.232 1.264-2.516 1.011-1.758 1.366-2.326 1.418-2.271 0.038 0.040 0.655 1.091 1.372 2.335zM16.787 13.561l1.264 2.188-2.563 0.016c-1.41 0.009-2.575 0.004-2.59-0.010s0.551-1.027 1.256-2.249c0.705-1.223 1.302-2.203 1.325-2.178s0.612 1.030 1.308 2.233zM22.772 13.611c0.67 1.164 1.206 2.128 1.191 2.143s-1.181 0.020-2.59 0.012l-2.563-0.016 1.106-1.911c0.608-1.051 1.191-2.060 1.294-2.242 0.172-0.303 0.195-0.321 0.266-0.216 0.043 0.063 0.626 1.067 1.296 2.23zM17.986 16.35c-0.049 0.076-0.667 1.144-1.375 2.373l-1.287 2.235h-5.844c-3.214 0-5.844-0.010-5.844-0.022 0-0.017 1.548-2.709 2.565-4.462l0.152-0.262h11.72l-0.088 0.139zM27.16 21.214c1.589 2.751 2.898 5.040 2.909 5.085 0.017 0.068-0.453 0.083-2.691 0.083h-2.711l-2.852-4.947c-1.569-2.721-2.892-5.009-2.941-5.085l-0.089-0.139h5.485l2.889 5.003zM36.182 16.238c0 0.015-0.606 1.076-1.347 2.358l-1.347 2.33h-6.014l-1.348-2.334c-0.741-1.283-1.348-2.344-1.348-2.357s2.566-0.024 5.701-0.024c3.136 0 5.702 0.012 5.702 0.027zM19.741 18.675c0.703 1.219 1.278 2.232 1.278 2.25s-1.167 0.033-2.594 0.033c-1.618 0-2.586-0.022-2.573-0.059 0.044-0.126 2.55-4.439 2.579-4.44 0.017-0.001 0.607 0.996 1.31 2.216zM15.040 21.42c0 0.051-5.557 9.671-5.634 9.754-0.056 0.060-0.369-0.437-1.395-2.212-0.728-1.259-1.332-2.327-1.343-2.373s0.641-1.234 1.449-2.639l1.468-2.555 2.728-0.003c1.5-0.002 2.728 0.011 2.728 0.028zM20.822 21.748c-0.112 0.198-1.424 2.472-2.916 5.054l-2.712 4.695h-2.732c-1.502 0-2.721-0.021-2.707-0.046s1.325-2.3 2.914-5.054l2.889-5.008h5.467l-0.204 0.36zM22.861 24.078l1.427 2.473-1.331 2.304c-0.732 1.267-1.353 2.326-1.379 2.353s-0.69-1.065-1.476-2.427l-1.429-2.476 1.366-2.368c0.751-1.302 1.372-2.36 1.38-2.35s0.657 1.131 1.442 2.491zM30.080 26.791c0 0.022-0.603 1.089-1.341 2.371l-1.341 2.332-2.727 0.002c-1.5 0.001-2.728-0.010-2.728-0.025 0-0.026 1.669-2.934 2.382-4.149l0.334-0.57h2.71c1.49 0 2.71 0.018 2.71 0.039z"></path>
</symbol>

<symbol id="icon-Frame" viewBox="0 0 32 32">
<path fill="#fff" style="fill: var(--color1, #fff)" d="M15.162 0.003c-3.159 0.177-6.323 1.299-9.064 3.495-7.122 5.705-8.039 16.21-2.015 23.063s16.558 7.29 23.129 0.96c0.006-0.002 0.009-0.004 0.013-0.005l-0.001 0.001 0.129-0.128c0-0 0-0 0-0s0-0 0-0v0c1.376-1.383 1.374-3.625-0.005-5.005-1.378-1.378-3.617-1.381-5-0.009-0.002 0-0.003 0-0.005 0.001l0.001-0c-2.531 2.478-6.288 3.222-9.573 1.895s-5.471-4.47-5.572-8.011c-0.101-3.541 1.903-6.804 5.106-8.316 3.202-1.511 6.993-0.984 9.662 1.343l0.436 0.438c0.346 0.352 0.343 0.909-0.005 1.258s-0.908 0.351-1.259 0.004l-0.614-0.616c-0.016-0.009-0.034-0.017-0.053-0.022l-0.002-0c-0.009-0.010-0.012-0.024-0.022-0.033-0.005-0.005-0.011-0.010-0.017-0.015l-0.001-0c-4.793-3.63-11.681-0.051-11.466 5.958s7.339 9.087 11.862 5.125c0.007-0.006 0.013-0.012 0.019-0.019l0-0c0.461-0.514 0.456-1.299-0.011-1.808-0.001-0.002-0.001-0.002-0.001-0.002l0.001 0.001c-0.272-0.294-0.645-0.402-0.989-0.39s-0.666 0.132-0.9 0.324c-2.917 2.371-7.256 0.352-7.32-3.407s4.204-5.925 7.2-3.653c0.037 0.029 0.085 0.046 0.136 0.046 0.047 0 0.090-0.014 0.126-0.038l-0.001 0.001-0.147 0.098 0.268 0.268c-0-0 0 0 0 0l0.001 0.001c1.385 1.365 3.617 1.357 4.992-0.018s1.383-3.608 0.018-4.993c0 0-0-0-0-0l-0.001-0.001-0.044-0.045c-0.017-0.031-0.025-0.068-0.049-0.094-0.003-0.003-0.006-0.006-0.009-0.009l-0-0c-3.365-3.22-8.335-4.109-12.608-2.256s-7.020 6.089-6.969 10.746c0.051 4.657 2.89 8.832 7.202 10.591s9.262 0.761 12.555-2.532c0.005-0.007 0.011-0.014 0.016-0.022l0.001-0.001c0.338-0.308 0.849-0.313 1.191-0.007s0.394 0.813 0.127 1.184c-4.158 4.236-10.614 5.215-15.84 2.397-8.23-4.438-9.459-15.729-2.376-21.834s18.069-3.222 21.243 5.573c0.089 0.249 0.237 0.557 0.486 0.809 0.248 0.251 0.614 0.439 1.069 0.412 0.793-0.006 1.373-0.774 1.157-1.538-0.030-0.087-0.109-0.15-0.203-0.154l-0-0 0.202 0.147c-2.332-7.366-9.257-11.546-16.208-11.156zM15.193 0.446c6.753-0.383 13.474 3.679 15.745 10.845 0.137 0.489-0.221 0.963-0.73 0.964-0.005 0-0.010 0-0.015 0.001l0.001-0c-0.328 0.021-0.546-0.098-0.727-0.281s-0.308-0.436-0.383-0.645c0-0 0-0 0-0s0-0 0-0v0c-3.277-9.078-14.65-12.062-21.961-5.761s-6.039 17.99 2.456 22.571c5.407 2.915 12.093 1.9 16.39-2.489 0.007-0.007 0.013-0.015 0.019-0.023l0-0.001c0.413-0.555 0.334-1.339-0.182-1.8s-1.303-0.452-1.809 0.020c-0.012 0.012-0.022 0.025-0.031 0.039l-0.001 0.001c-3.166 3.155-7.912 4.11-12.052 2.422-4.146-1.691-6.873-5.701-6.922-10.179s2.589-8.546 6.697-10.328c4.105-1.78 8.875-0.928 12.11 2.163 0.010 0.038 0.028 0.070 0.053 0.097l-0-0 0.049 0.050c1.193 1.212 1.186 3.153-0.017 4.356s-3.144 1.21-4.356 0.017l-0.001-0.001-0.397-0.398c-0.035-0.024-0.078-0.038-0.125-0.038-0.031 0-0.061 0.006-0.087 0.018l0.001-0.001 0.181 0.005c-3.272-2.481-7.993-0.086-7.923 4.020s4.87 6.339 8.055 3.748c0-0 0.001-0.001 0.001-0.001v0c0.142-0.117 0.388-0.214 0.629-0.222s0.47 0.061 0.642 0.246c0.31 0.338 0.313 0.849 0.012 1.193-4.261 3.715-10.899 0.841-11.1-4.813-0.202-5.66 6.229-9.001 10.744-5.582l-0.018-0.015c-0.005-0.005-0.009-0.011-0.011-0.017 0.026 0.050 0.069 0.089 0.121 0.108l0.002 0.001 0.568 0.57c0 0 0.001 0.001 0.001 0.001v0c0.524 0.517 1.374 0.514 1.894-0.006s0.523-1.37 0.007-1.894c0.001 0 0.001 0 0 0l-0.001-0.001-0.444-0.446c-0.004-0.004-0.007-0.007-0.011-0.011l-0-0c-2.803-2.446-6.789-3.001-10.154-1.414s-5.471 5.018-5.364 8.736c0.106 3.719 2.404 7.024 5.854 8.417s7.397 0.611 10.055-1.99c0.002-0 0.003-0 0.004-0.001l-0.001 0c1.21-1.205 3.161-1.203 4.368 0.005s1.209 3.158 0.005 4.368l-0.062 0.062h0.087c-0.061 0-0.116 0.024-0.156 0.063l0-0c-6.391 6.158-16.621 5.734-22.48-0.931s-4.968-16.866 1.958-22.414c2.667-2.137 5.743-3.229 8.813-3.403zM23.791 7.949c0.003 0.005 0.005 0.010 0.008 0.014l-0.001-0.001-0.001-0.001c-0.003-0.003-0.005-0.008-0.006-0.012z"></path>
</symbol>

<symbol id="tiktok" viewBox="0 0 32 32">
<path d="M16.656 1.029c1.637-0.025 3.262-0.012 4.886-0.025 0.054 2.031 0.878 3.859 2.189 5.213l-0.002-0.002c1.411 1.271 3.247 2.095 5.271 2.235l0.028 0.002v5.036c-1.912-0.048-3.71-0.489-5.331-1.247l0.082 0.034c-0.784-0.377-1.447-0.764-2.077-1.196l0.052 0.034c-0.012 3.649 0.012 7.298-0.025 10.934-0.103 1.853-0.719 3.543-1.707 4.954l0.020-0.031c-1.652 2.366-4.328 3.919-7.371 4.011h-0.014c-0.123 0.006-0.268 0.009-0.414 0.009-1.73 0-3.347-0.482-4.725-1.319l0.040 0.023c-2.508-1.509-4.238-4.091-4.558-7.094l-0.004-0.041c-0.025-0.625-0.037-1.25-0.012-1.862 0.49-4.779 4.494-8.476 9.361-8.476 0.547 0 1.083 0.047 1.604 0.136l-0.056-0.008c0.025 1.849-0.050 3.699-0.050 5.548-0.423-0.153-0.911-0.242-1.42-0.242-1.868 0-3.457 1.194-4.045 2.861l-0.009 0.030c-0.133 0.427-0.21 0.918-0.21 1.426 0 0.206 0.013 0.41 0.037 0.61l-0.002-0.024c0.332 2.046 2.086 3.59 4.201 3.59 0.061 0 0.121-0.001 0.181-0.004h-0.009c1.463-0.044 2.733-0.831 3.451-1.994l0.010-0.018c0.267-0.372 0.45-0.822 0.511-1.311l0.001-0.014c0.125-2.237 0.075-4.461 0.087-6.698 0.012-5.036-0.012-10.060 0.025-15.083z"></path>
</symbol>

<symbol id="youtube" viewBox="0 0 32 32">
<path d="M12.781 20.137v-8.979c3.188 1.5 5.656 2.949 8.576 4.511-2.408 1.336-5.389 2.834-8.576 4.468zM30.546 6.693c-0.55-0.724-1.487-1.288-2.485-1.474-2.933-0.557-21.227-0.558-24.158 0-0.8 0.15-1.512 0.512-2.124 1.075-2.579 2.393-1.771 15.229-1.149 17.308 0.261 0.9 0.599 1.549 1.025 1.975 0.548 0.563 1.299 0.951 2.161 1.125 2.415 0.499 14.854 0.779 24.195 0.075 0.861-0.15 1.622-0.55 2.223-1.138 2.384-2.384 2.222-15.94 0.312-18.947z"></path>
</symbol>

<symbol id="instagram" viewBox="0 0 32 32">
<path d="M16 24c-4.418 0-8-3.582-8-8s3.582-8 8-8c4.418 0 8 3.582 8 8s-3.582 8-8 8zM16 21.333c2.945 0 5.333-2.388 5.333-5.333s-2.388-5.333-5.333-5.333c-2.946 0-5.333 2.388-5.333 5.333s2.388 5.333 5.333 5.333z"></path>
<path d="M24 6.667c-0.736 0-1.333 0.597-1.333 1.333s0.597 1.333 1.333 1.333c0.736 0 1.333-0.597 1.333-1.333s-0.597-1.333-1.333-1.333z"></path>
<path d="M2.205 5.701c0.767-1.505 1.991-2.729 3.496-3.496 1.711-0.872 3.951-0.872 8.432-0.872h3.733c4.48 0 6.721 0 8.432 0.872 1.505 0.767 2.729 1.991 3.496 3.496 0.872 1.711 0.872 3.951 0.872 8.432v3.733c0 4.48 0 6.721-0.872 8.432-0.767 1.505-1.991 2.729-3.496 3.496-1.711 0.872-3.951 0.872-8.432 0.872h-3.733c-4.48 0-6.721 0-8.432-0.872-1.505-0.767-2.729-1.991-3.496-3.496-0.872-1.711-0.872-3.951-0.872-8.432v-3.733c0-4.48 0-6.721 0.872-8.432zM17.867 4h-3.733c-2.284 0-3.837 0.002-5.037 0.1-1.169 0.096-1.767 0.269-2.184 0.481-1.004 0.511-1.819 1.327-2.331 2.331-0.213 0.417-0.386 1.015-0.481 2.184-0.098 1.2-0.1 2.753-0.1 5.037v3.733c0 2.284 0.002 3.837 0.1 5.037 0.096 1.169 0.269 1.767 0.481 2.184 0.511 1.003 1.327 1.819 2.331 2.331 0.417 0.213 1.015 0.386 2.184 0.481 1.2 0.098 2.753 0.1 5.037 0.1h3.733c2.284 0 3.837-0.002 5.037-0.1 1.169-0.095 1.767-0.269 2.184-0.481 1.003-0.511 1.819-1.327 2.331-2.331 0.213-0.417 0.386-1.015 0.481-2.184 0.098-1.2 0.1-2.753 0.1-5.037v-3.733c0-2.284-0.002-3.837-0.1-5.037-0.095-1.169-0.269-1.767-0.481-2.184-0.511-1.004-1.327-1.819-2.331-2.331-0.417-0.213-1.015-0.386-2.184-0.481-1.2-0.098-2.753-0.1-5.037-0.1z"></path>
</symbol>

<symbol id="facebook" viewBox="0 0 32 32">
<path d="M18.914 32v-14.4h4.372l0.714-6.4h-5.086v-3.117c0-1.648 0.042-3.283 2.345-3.283h2.332v-4.576c0-0.069-2.003-0.224-4.030-0.224-4.233 0-6.884 2.651-6.884 7.52v3.68h-4.677v6.4h4.677v14.4h6.237z"></path>
</symbol>

<symbol id="twitter" viewBox="0 0 32 32">
<path d="M10.064 28.8c12.075 0 18.68-9.85 18.68-18.391 0-0.28 0-0.559-0.019-0.836 1.285-0.914 2.394-2.048 3.275-3.346-1.197 0.523-2.469 0.866-3.77 1.018 1.37-0.808 2.395-2.078 2.886-3.576-1.29 0.753-2.699 1.284-4.17 1.569-2.486-2.602-6.645-2.728-9.29-0.28-1.704 1.578-2.429 3.932-1.899 6.177-5.278-0.261-10.197-2.716-13.531-6.753-1.742 2.954-0.851 6.731 2.034 8.628-1.045-0.030-2.067-0.307-2.981-0.808v0.082c0.002 3.076 2.205 5.726 5.267 6.336-0.966 0.26-1.981 0.298-2.963 0.11 0.859 2.634 3.325 4.438 6.133 4.49-2.325 1.799-5.197 2.776-8.154 2.772-0.522-0.002-1.043-0.032-1.563-0.093 3.003 1.897 6.496 2.903 10.064 2.898z"></path>
</symbol>

</defs>
</svg>
