<svg width="140" height="122" fill="none" xmlns="http://www.w3.org/2000/svg"><path d="M61.972.758C60.89 2.439 0 108.136 0 108.335c0 .247 6.487 11.658 7.29 12.824l.442.642 62.329-.059 62.328-.059 3.828-6.624c3.225-5.58 3.792-6.702 3.6-7.117C139.194 106.598 77.879.577 77.635.421 77.478.322 73.966.239 69.83.237L62.311.233l-.339.525M107.263 54.6c16.71 28.939 30.387 52.695 30.393 52.792.006.096-23.924.175-53.176.175H31.293l3.127-5.425 3.128-5.425 39.945-.059c29.052-.043 40.03-.131 40.259-.321.173-.143.315-.407.315-.586 0-.178-12.128-21.338-26.95-47.022-14.823-25.683-26.95-46.736-26.95-46.783 0-.048 2.86-.059 6.356-.025l6.357.062L107.263 54.6m-18.009-5.95c14.352 24.897 26.247 45.503 26.431 45.792l.335.525-6.385-.001h-6.385L83.29 60.375c-17.437-30.219-20.034-34.6-20.54-34.661-.542-.064-2.335 2.974-27.379 46.373-14.739 25.542-26.923 46.61-27.074 46.817-.231.317-.777-.49-3.433-5.072l-3.157-5.449.605-1.064c.332-.585 14.039-24.343 30.459-52.796C55.829 14.566 62.685 2.859 62.891 3.087c.146.163 12.01 20.666 26.363 45.563M66.018 33.631l3.051 5.281-19.951 34.564c-10.973 19.011-19.951 34.699-19.951 34.864 0 .165.126.426.28.58.216.216 12.588.28 54.269.28 29.694 0 53.955.081 53.912.181-.043.1-1.443 2.566-3.111 5.481l-3.034 5.3-60.977.002c-36.461.002-60.947-.083-60.9-.209.349-.953 53.068-91.906 53.195-91.776.091.094 1.539 2.547 3.217 5.452m19.816 34.318c8.488 14.721 15.433 26.822 15.433 26.892 0 .069-14.07.126-31.267.126s-31.267-.068-31.267-.151c0-.082 7.009-12.305 15.575-27.162C65.866 47.611 69.95 40.713 70.142 40.913c.143.149 7.204 12.315 15.692 27.036" fill="#fff" fill-rule="evenodd"/></svg>