<?xml version="1.0" encoding="UTF-8" standalone="no"?>
<svg
   width="140"
   height="142"
   fill="none"
   version="1.1"
   id="svg1"
   xmlns="http://www.w3.org/2000/svg"
   xmlns:svg="http://www.w3.org/2000/svg">
  <defs
     id="defs1" />
  <path
     style="color:#000000;clip-rule:evenodd;fill:#ffffff;stroke-linecap:round;stroke-linejoin:round;stroke-miterlimit:10;-inkscape-stroke:none"
     d="M 67.28125,0.01367188 C 53.262131,0.80053957 39.221237,5.7770104 27.058594,15.521484 -4.5443753,40.839395 -8.616379,87.452195 18.119141,117.86523 44.851876,148.27511 91.593646,150.21315 120.75391,122.125 a 1.0001,1.0001 0 0 0 0.0527,-0.0215 l 0.57031,-0.56836 a 1.0001,1.0001 0 0 0 0,-0.002 c 6.10703,-6.13552 6.09715,-16.08698 -0.0234,-22.208981 -6.11373,-6.115869 -16.04953,-6.129262 -22.185551,-0.04102 a 1.0001,1.0001 0 0 0 -0.01563,0.002 C 87.919591,110.28174 71.247609,113.58154 56.671875,107.69531 42.096141,101.80909 32.393666,87.857596 31.947266,72.144531 31.498274,56.432423 40.39012,41.952032 54.605469,35.244141 c 14.209394,-6.705082 31.031414,-4.36581 42.873047,5.958984 l 1.933593,1.943359 c 1.533151,1.560647 1.523031,4.035486 -0.02344,5.583985 -1.548781,1.547684 -4.027489,1.557797 -5.585938,0.01953 l -2.722656,-2.734375 a 1.0001,1.0001 0 0 0 -0.240234,-0.09961 c -0.03885,-0.04415 -0.05254,-0.106151 -0.0957,-0.146485 a 1.0001,1.0001 0 0 0 -0.08008,-0.06641 C 69.393364,29.595006 38.831513,45.477614 39.783203,72.140625 40.734894,98.803636 72.351793,112.4645 92.419922,94.880859 a 1.0001,1.0001 0 0 0 0.08594,-0.08398 c 2.043589,-2.282409 2.021948,-5.765666 -0.04883,-8.023438 a 1.0001,1.0001 0 0 0 -0.002,-0.0039 c -1.20766,-1.305744 -2.864167,-1.785227 -4.386719,-1.732422 -1.522551,0.05281 -2.953833,0.58763 -3.992187,1.439453 C 71.131077,96.999409 51.879647,88.040066 51.595703,71.359375 51.311727,54.676805 70.250911,45.066701 83.546875,55.148437 a 1.0001,1.0001 0 0 0 1.158203,0.03516 l -0.652344,0.433593 1.191407,1.191407 a 1.0001,1.0001 0 0 0 0.0059,0.0039 c 6.144447,6.05531 16.052449,6.020105 22.152339,-0.08008 6.09989,-6.100184 6.13569,-16.010141 0.0801,-22.154297 a 1.0001,1.0001 0 0 0 -0.006,-0.0039 L 107.2793,34.375 c -0.076,-0.139265 -0.10941,-0.301095 -0.21875,-0.417969 a 1.0001,1.0001 0 0 0 -0.0391,-0.03906 C 92.087765,19.628603 70.03608,15.682399 51.074219,23.90625 32.112392,32.130085 19.923644,50.926259 20.150391,71.59375 c 0.226746,20.667491 12.823247,39.19221 31.960937,46.99805 19.137726,7.80585 41.098223,3.37724 55.714842,-11.23633 a 1.0001,1.0001 0 0 0 0.0723,-0.10352 c 1.50079,-1.36447 3.76552,-1.38814 5.2832,-0.0332 1.51642,1.35481 1.74933,3.60896 0.5625,5.25195 C 95.291708,131.26883 66.646051,135.61093 43.455078,123.10547 6.9352609,103.40975 1.4828085,53.307817 32.912109,26.21875 64.344124,-0.86825246 113.09325,11.922342 127.17969,50.951172 c 0.39681,1.103068 1.05086,2.471412 2.1582,3.591797 1.10111,1.114077 2.72321,1.945936 4.74219,1.830078 3.51719,-0.02454 6.09214,-3.434444 5.13281,-6.824219 a 1.0001,1.0001 0 0 0 -0.9043,-0.683594 l 0.89453,0.654297 C 128.85376,16.83234 98.123313,-1.717437 67.28125,0.01367188 Z M 67.417969,1.9804687 C 97.382315,0.283021 127.20924,18.306423 137.28711,50.103516 c 0.60768,2.170976 -0.98183,4.274837 -3.23828,4.277343 a 1.0001,1.0001 0 0 0 -0.0625,0.002 c -1.45373,0.09164 -2.42245,-0.434487 -3.22461,-1.246093 -0.80216,-0.811607 -1.36794,-1.936611 -1.70117,-2.863282 a 1.0001,1.0001 0 0 0 0,-0.002 C 114.52057,9.9860422 64.051454,-3.2540455 31.607422,24.705078 -0.83378315,52.66631 4.8102427,104.53538 42.505859,124.86523 c 23.991663,12.93722 53.660758,8.43112 72.728521,-11.04687 a 1.0001,1.0001 0 0 0 0.0879,-0.10352 c 1.83409,-2.46309 1.4815,-5.94225 -0.8086,-7.98828 -2.28968,-2.04416 -5.78219,-2.00522 -8.02539,0.0898 a 1.0001,1.0001 0 0 0 -0.13867,0.17773 C 92.298222,119.99593 71.239251,124.23379 52.867187,116.74023 34.469623,109.23628 22.368369,91.440611 22.150391,71.572266 21.932412,51.70392 33.640639,33.647976 51.869141,25.742187 70.086073,17.841416 91.253614,21.624468 105.60938,35.339844 a 1.0001,1.0001 0 0 0 0.23437,0.427734 l 0.21875,0.220703 c 5.29544,5.378347 5.26335,13.992258 -0.0742,19.330078 -5.33727,5.337526 -13.951415,5.37047 -19.330077,0.07617 l -0.0059,-0.0059 -1.763672,-1.765625 a 1.0001,1.0001 0 0 0 -0.935547,-0.0918 l 0.802734,0.02344 C 70.23556,42.544592 49.285576,53.173714 49.595703,71.392578 49.90583,89.611443 71.204636,99.523302 85.341797,88.025391 a 1.0001,1.0001 0 0 0 0.0039,-0.0039 c 0.631645,-0.518175 1.720523,-0.949133 2.792969,-0.986328 1.072445,-0.03719 2.085319,0.269497 2.847656,1.09375 1.373543,1.500895 1.389143,3.767208 0.05273,5.294922 C 72.132874,109.90728 42.676765,97.157526 41.78125,72.068359 40.884781,46.952452 69.420458,32.125302 89.457031,47.298828 l -0.07813,-0.06641 c -0.02216,-0.0207 -0.0406,-0.04761 -0.05078,-0.07617 a 1.0001,1.0001 0 0 0 0.544922,0.482422 l 2.519531,2.527344 a 1.0001,1.0001 0 0 0 0.0059,0.0059 c 2.324862,2.294755 6.096527,2.282648 8.406256,-0.02734 2.3075,-2.31054 2.3209,-6.079935 0.0293,-8.40625 a 1.0001,1.0001 0 0 0 -0.004,-0.002 l -1.970708,-1.980469 a 1.0001,1.0001 0 0 0 -0.05078,-0.04883 C 86.371463,28.852159 68.681182,26.388839 53.751953,33.433594 38.822724,40.478349 29.475726,55.700017 29.947266,72.201172 c 0.468819,16.502197 10.668814,31.167768 25.976562,37.349608 15.304701,6.18061 32.822333,2.71131 44.619142,-8.83203 a 1.0001,1.0001 0 0 0 0.0137,-0.002 c 5.36939,-5.347561 14.02527,-5.337941 19.38281,0.0215 5.3576,5.35884 5.36721,14.01409 0.0215,19.38477 l -0.27539,0.27343 h 0.38476 a 1.0001,1.0001 0 0 0 -0.69336,0.28125 C 91.018919,148.00267 45.621652,146.1219 19.621094,116.54492 -6.3794648,86.967939 -2.4256074,41.70395 28.308594,17.082031 40.144768,7.5991179 53.794895,2.7522011 67.417969,1.9804687 Z M 105.57227,35.271484 a 1.0001,1.0001 0 0 0 0.0312,0.05664 l -0.004,-0.0039 c -0.0135,-0.01448 -0.0232,-0.03335 -0.0273,-0.05273 z"
     id="path1" />
</svg>
