<svg width="151" height="140" viewBox="0 0 151 140" fill="none" xmlns="http://www.w3.org/2000/svg">
<path d="M0.166195 99.8007C0.176829 99.8558 0.193598 99.9094 0.216187 99.9607C0.226186 99.9907 0.236185 100.031 0.246183 100.061L11.6545 119.818L11.6845 119.848C11.7045 119.878 11.7245 119.908 11.7545 119.948C11.7931 119.99 11.8368 120.027 11.8845 120.058C11.9145 120.078 11.9345 120.108 11.9645 120.128C11.9762 120.136 11.9904 120.139 12.0045 120.138C12.1176 120.201 12.2447 120.235 12.3744 120.238H57.5078L68.6761 139.575L68.7061 139.605C68.7261 139.635 68.7461 139.665 68.7761 139.705C68.8147 139.747 68.8584 139.784 68.9061 139.815C68.9361 139.835 68.9561 139.865 68.9861 139.885C68.9978 139.893 69.012 139.896 69.0261 139.895C69.1393 139.958 69.2664 139.992 69.396 139.995H137.836C137.969 139.993 138.099 139.958 138.216 139.895L138.306 139.835C138.391 139.778 138.465 139.707 138.526 139.625C138.536 139.605 138.566 139.595 138.576 139.575L149.984 119.818C149.994 119.798 149.994 119.788 150.004 119.768C150.022 119.736 150.035 119.703 150.044 119.668C150.054 119.628 150.064 119.598 150.074 119.558C150.082 119.522 150.086 119.485 150.084 119.448C150.084 119.428 150.094 119.418 150.094 119.398C150.094 119.378 150.084 119.368 150.084 119.348C150.084 119.308 150.074 119.278 150.074 119.238C150.074 119.198 150.054 119.168 150.044 119.128C150.033 119.094 150.019 119.061 150.004 119.028C149.994 119.008 149.994 118.998 149.984 118.978L127.418 79.8937L138.576 60.5565C138.586 60.5365 138.586 60.5265 138.596 60.5065C138.613 60.475 138.627 60.4414 138.636 60.4065C138.646 60.3665 138.656 60.3365 138.666 60.2965C138.674 60.2605 138.677 60.2235 138.676 60.1865C138.676 60.1665 138.686 60.1565 138.686 60.1365C138.686 60.1166 138.676 60.1066 138.676 60.0866C138.676 60.0466 138.666 60.0166 138.666 59.9766C138.666 59.9366 138.646 59.9066 138.636 59.8666C138.624 59.8326 138.611 59.7992 138.596 59.7666C138.586 59.7466 138.586 59.7366 138.576 59.7166L104.371 0.435308C104.351 0.405312 104.321 0.385315 104.301 0.35532C104.267 0.309945 104.23 0.266548 104.191 0.225339C104.15 0.192006 104.107 0.161919 104.061 0.135352C104.017 0.106117 103.97 0.0825943 103.921 0.0653622C103.862 0.0462327 103.802 0.0328384 103.741 0.0253681C103.711 0.0253681 103.681 0.00537109 103.641 0.00537109H80.8244C80.8044 0.00537109 80.7944 0.0153696 80.7744 0.0153696C80.7344 0.0153696 80.7044 0.0253681 80.6644 0.0253681L80.5444 0.0553637C80.5144 0.0653622 80.4744 0.0853594 80.4444 0.0953579C80.4144 0.105356 80.4144 0.105356 80.3944 0.115355C80.383 0.127705 80.3695 0.137871 80.3544 0.145351C80.3221 0.1655 80.2919 0.188956 80.2644 0.21534C80.2353 0.239424 80.2085 0.266206 80.1844 0.295329C80.1645 0.325324 80.1345 0.35532 80.1145 0.385315C80.1021 0.396709 80.0919 0.410263 80.0845 0.425309L57.5178 39.5196H35.2011C35.1811 39.5196 35.1711 39.5296 35.1511 39.5296C35.1111 39.5296 35.0811 39.5396 35.0411 39.5396C35.0011 39.5396 34.9611 39.5596 34.9311 39.5696C34.8971 39.5812 34.8637 39.5945 34.8311 39.6096C34.8111 39.6196 34.8011 39.6196 34.7811 39.6296C34.7611 39.6396 34.7611 39.6496 34.7411 39.6596C34.7088 39.6797 34.6786 39.7032 34.6511 39.7295C34.622 39.7536 34.5952 39.7804 34.5711 39.8095C34.5511 39.8395 34.5212 39.8695 34.5012 39.8995C34.4888 39.9109 34.4786 39.9245 34.4712 39.9395L0.256182 99.2208C0.241642 99.2526 0.231549 99.2863 0.226186 99.3208C0.204997 99.3726 0.188272 99.4261 0.176193 99.4808C0.160322 99.5325 0.153556 99.5867 0.156196 99.6408C0.154541 99.6943 0.157888 99.7478 0.166195 99.8007ZM103.151 1.70512L136.396 59.2867H115.539L82.2841 1.70512H103.151ZM114.559 98.8009H93.6925L115.529 60.9664H136.396L114.559 98.8009ZM80.8244 2.545L114.069 60.1265L92.2327 97.961L81.8042 79.8837L92.9726 60.5465C92.9826 60.5265 92.9826 60.5165 92.9926 60.4965C93.0102 60.465 93.0236 60.4314 93.0326 60.3965C93.0426 60.3565 93.0526 60.3265 93.0626 60.2865C93.0708 60.2505 93.0742 60.2135 93.0726 60.1765C93.0726 60.1565 93.0826 60.1465 93.0826 60.1265C93.0826 60.1066 93.0726 60.0966 93.0726 60.0766C93.0726 60.0366 93.0626 60.0066 93.0626 59.9666C93.0626 59.9266 93.0426 59.8966 93.0326 59.8566C93.021 59.8226 93.0076 59.7892 92.9926 59.7566C92.9826 59.7366 92.9826 59.7266 92.9726 59.7066L81.5543 39.9495C81.5343 39.9195 81.5043 39.8995 81.4843 39.8695C81.4501 39.8241 81.4134 39.7808 81.3743 39.7395C81.3334 39.7062 81.2899 39.6761 81.2443 39.6496C81.1997 39.6223 81.1529 39.5988 81.1043 39.5796C81.0498 39.5599 80.9923 39.5498 80.9343 39.5496C80.9043 39.5496 80.8644 39.5296 80.8344 39.5296H59.4775L80.8244 2.545ZM58.0177 41.2193H80.3444L90.7829 59.2867H47.0993L36.6608 41.2193H58.0177ZM35.2011 42.0592L45.6295 60.1265L12.3844 117.708L1.95593 99.6408L35.2011 42.0592ZM13.8542 118.548L47.0993 60.9664H90.7829L80.3444 79.0438H58.0177C57.9977 79.0438 57.9877 79.0538 57.9677 79.0538C57.9277 79.0538 57.8977 79.0638 57.8577 79.0638L57.7377 79.0938C57.7077 79.1038 57.6678 79.1238 57.6378 79.1338C57.6078 79.1438 57.6078 79.1438 57.5878 79.1538C57.5764 79.1661 57.5628 79.1763 57.5478 79.1838C57.5154 79.2039 57.4853 79.2274 57.4578 79.2537C57.4287 79.2778 57.4019 79.3046 57.3778 79.3337C57.3578 79.3637 57.3278 79.3937 57.3078 79.4237C57.2978 79.4337 57.2778 79.4437 57.2778 79.4637L45.8695 99.2208C45.8549 99.2526 45.8449 99.2863 45.8395 99.3208C45.8183 99.3726 45.8016 99.4261 45.7895 99.4808C45.7809 99.5336 45.7775 99.5872 45.7795 99.6408C45.7778 99.6943 45.7812 99.7478 45.7895 99.8007C45.8001 99.8558 45.8169 99.9094 45.8395 99.9607C45.8495 99.9907 45.8595 100.031 45.8695 100.061L56.5479 118.548H13.8542ZM137.376 138.305H70.8858L81.3143 120.238H147.805L137.376 138.305ZM69.426 137.465L47.5892 99.6408L58.0277 81.5634L79.8645 119.388L69.426 137.465ZM147.805 118.548H81.3143L59.4775 80.7235H80.3444L91.5128 100.061L91.5428 100.091C91.5627 100.126 91.5861 100.16 91.6128 100.191C91.6514 100.233 91.695 100.27 91.7428 100.301C91.7728 100.321 91.7927 100.351 91.8227 100.371C91.8345 100.379 91.8486 100.382 91.8627 100.381C91.9759 100.444 92.103 100.478 92.2327 100.481H115.049C115.182 100.478 115.312 100.444 115.429 100.381L115.519 100.321C115.604 100.264 115.679 100.193 115.739 100.111C115.749 100.091 115.779 100.081 115.789 100.061L126.468 81.5634L147.805 118.548Z" fill="white"/>
</svg>
