<svg width="141" height="126" fill="none" xmlns="http://www.w3.org/2000/svg"><path d="m13.16 7.275-12.337 7-.06 40.643-.059 40.644 12.614 7.033c6.938 3.868 12.728 7.032 12.867 7.032.139 0 6.091-3.225 13.227-7.167l12.975-7.168.068-3.263.067-3.264 17.625 18.478c9.694 10.164 17.734 18.48 17.867 18.48.133.001 12.03-6.802 26.438-15.118l26.195-15.12.06-40.524.059-40.523-12.665-7.101C121.136 3.431 115.293.24 115.117.246c-.176.007-6.083 3.323-13.127 7.37l-12.808 7.358-.117 19.502-.118 19.503-18.212-19.741-18.213-19.741-13.16-7.129C32.124 3.447 26.044.247 25.85.257c-.194.01-5.904 3.168-12.69 7.018m27.301 3.467 10.733 5.825L83.548 51.7c17.794 19.323 32.978 35.766 33.74 36.54l1.387 1.408-.001-29.49V30.667l-12.924-7.402c-7.108-4.071-12.921-7.455-12.917-7.52.006-.092 11.689-6.806 21.124-12.138l1.31-.741 11.398 6.389 11.398 6.389.059 39.264.059 39.263-24.264 13.999-24.265 13.999-.117-13.483-.118-13.484L58.28 61.737 27.142 28.272l-11.335-6.549c-6.234-3.602-11.249-6.635-11.145-6.739.105-.105 4.937-2.873 10.739-6.152L25.95 2.871l1.889 1.023c1.038.562 6.718 3.644 12.622 6.848M15.26 24.188l10.208 5.886 30.743 33.019 30.743 33.019-.061 12.52-.061 12.521-30.777-32.259c-16.928-17.742-30.86-32.259-30.96-32.259-.101 0-.21 11.149-.243 24.775l-.06 24.775-10.34-5.756C8.765 97.262 3.875 94.518 3.584 94.33l-.529-.341V17.135l.999.583c.549.321 5.592 3.232 11.206 6.47m88.705.862 12.125 6.954V83.3l-.817-.819c-.45-.45-5.995-6.423-12.323-13.274L91.445 56.752l-.015-19.328c-.009-11.372.072-19.329.197-19.329.117 0 5.669 3.13 12.338 6.955M40.267 75.948l9.553 10.03v7.939l-10.157 5.609a9171.012 9171.012 0 0 0-11.162 6.172l-1.006.562V62.632l1.61 1.643c.885.903 5.908 6.156 11.162 11.673" fill="#fff" fill-rule="evenodd"/></svg>