<svg width="141" height="122" fill="none" xmlns="http://www.w3.org/2000/svg"><path d="M35.337.415c-.147.095-2.875 4.69-6.064 10.211-5.265 9.117-5.772 10.088-5.517 10.575.155.295 2.699 4.728 5.653 9.852 2.954 5.123 5.371 9.378 5.371 9.456 0 .078-5.15.169-11.445.203l-11.446.061-5.818 10.078C1.004 59.627.286 60.993.508 61.426c.802 1.559 11.128 19.355 11.401 19.649.279.301 1.986.37 11.588.47l11.261.117-5.61 9.724c-3.623 6.281-5.559 9.859-5.465 10.105.294.773 11.407 19.892 11.659 20.059.143.095 5.467.174 11.831.176l11.57.004.575-.881c.316-.485 2.862-4.847 5.659-9.694 2.796-4.847 5.16-8.89 5.253-8.985.092-.095 2.645 4.123 5.672 9.372 3.027 5.25 5.648 9.69 5.825 9.867.263.263 2.424.321 11.934.321h11.613l.55-.881c1.424-2.281 11.031-19.164 11.106-19.516.046-.22-2.432-4.736-5.507-10.036l-5.591-9.635 11.231-.117c9.566-.1 11.281-.17 11.574-.47.361-.371 11.658-19.846 11.658-20.098 0-.18-10.717-18.784-11.334-19.676l-.448-.646h-11.382c-6.259 0-11.381-.052-11.381-.116s2.547-4.522 5.661-9.907c5.142-8.896 5.636-9.844 5.399-10.366C116.187 18.9 105.645.795 105.317.529c-.278-.226-2.978-.294-11.695-.294-6.234 0-11.49.06-11.68.133-.191.073-2.87 4.509-5.953 9.857-4.181 7.251-5.672 9.652-5.865 9.443-.142-.154-2.566-4.299-5.387-9.211-2.822-4.911-5.33-9.22-5.575-9.576l-.444-.646L47.16.239C40.803.241 35.483.32 35.337.415m28.309 11.349 5.709 9.884-5.224 9.051c-4.335 7.509-5.265 8.978-5.461 8.622-.13-.235-4.906-8.518-10.614-18.406C42.348 11.027 37.551 2.7 37.396 2.409l-.283-.529h20.823l5.71 9.884m45.923-.99c2.811 4.886 5.111 8.956 5.111 9.045 0 .088-4.666.133-10.369.1l-10.369-.062-5.141-8.889c-2.828-4.889-5.141-8.934-5.141-8.989 0-.054 4.679-.097 10.399-.094l10.398.005 5.112 8.884M46.883 22.016c6.074 10.547 11.01 19.293 10.967 19.436-.251.839-10.242 17.764-10.394 17.607-.53-.548-22.095-38.212-22.033-38.48.11-.467 10.128-17.761 10.282-17.749.073.005 5.103 8.639 11.178 19.186M87.545 11.96l5.06 8.764-11.111 19.247C75.383 50.557 70.33 59.215 70.265 59.212c-.065-.003-2.435-4.034-5.268-8.957-4.028-7.001-5.1-9.034-4.918-9.334.127-.211 5.131-8.875 11.12-19.253C77.188 11.29 82.177 2.888 82.286 2.997c.109.109 2.476 4.143 5.259 8.963m27.096 9.864c-.043.112-2.5 4.395-5.46 9.517l-5.381 9.314H93.478c-8.823 0-10.311-.049-10.246-.336.041-.184 2.455-4.465 5.363-9.512l5.287-9.176 10.419-.006c5.794-.003 10.383.086 10.34.199M40.926 51.067C43.75 55.954 46.06 60 46.06 60.058c0 .059-4.925.079-10.945.046l-10.946-.062-4.35-7.52a1468.057 1468.057 0 0 1-5.174-8.991l-.823-1.471 10.985.061 10.985.061 5.134 8.885m91.879-.072c2.812 4.847 5.119 8.892 5.127 8.989.007.097-10.007.174-22.253.173l-22.267-.004-4.979-8.633c-2.739-4.748-5.05-8.818-5.137-9.045-.149-.392.962-.409 22.12-.352l22.276.059 5.113 8.813m-114.977 1.22c2.732 4.742 4.967 8.684 4.967 8.759 0 .199-9.897 17.348-10.201 17.675-.19.205-1.505-1.888-5.074-8.076-2.65-4.594-4.964-8.648-5.144-9.009-.318-.64-.196-.883 4.818-9.594 3.856-6.701 5.209-8.867 5.405-8.657.144.154 2.497 4.16 5.229 8.902m46.174-.515 4.82 8.342-9.772.062c-5.375.034-9.818.016-9.873-.039-.055-.055 2.099-3.914 4.787-8.576 2.688-4.662 4.962-8.399 5.053-8.304.091.095 2.335 3.927 4.985 8.515m22.815.191c2.555 4.436 4.599 8.112 4.541 8.169-.058.058-4.501.078-9.875.044l-9.77-.062 4.216-7.284c2.319-4.007 4.539-7.853 4.934-8.547.656-1.154.742-1.224 1.013-.822.163.241 2.386 4.067 4.941 8.502M68.573 62.334c-.185.291-2.544 4.362-5.242 9.047L58.425 79.9h-22.28c-12.254 0-22.28-.038-22.28-.084 0-.065 5.9-10.328 9.78-17.012l.58-.999h44.684l-.336.529m34.974 18.543c6.058 10.489 11.05 19.214 11.091 19.387.063.261-1.727.316-10.258.316H94.046L83.172 81.721c-5.98-10.372-11.026-19.096-11.212-19.387l-.339-.529h20.91l11.016 19.072m34.398-18.968c0 .057-2.31 4.102-5.134 8.989l-5.135 8.884h-22.927l-5.139-8.897c-2.827-4.893-5.14-8.938-5.14-8.988 0-.051 9.782-.092 21.737-.092 11.956 0 21.738.047 21.738.104m-62.684 9.288c2.681 4.649 4.874 8.508 4.874 8.577 0 .07-4.45.126-9.89.126-6.168 0-9.86-.084-9.811-.224.168-.479 9.72-16.924 9.833-16.927.066-.002 2.313 3.799 4.994 8.448M57.34 81.663c0 .194-21.185 36.87-21.481 37.188-.212.228-1.406-1.666-5.317-8.432-2.775-4.799-5.079-8.871-5.121-9.048-.041-.177 2.444-4.705 5.523-10.063l5.598-9.742 10.399-.01c5.72-.006 10.399.042 10.399.107m22.045 1.253c-.428.754-5.43 9.425-11.116 19.27L57.93 120.085H47.516c-5.728 0-10.372-.079-10.32-.176.051-.097 5.05-8.769 11.108-19.27l11.015-19.094h20.843l-.777 1.371m7.771 8.88 5.441 9.428-5.074 8.784c-2.792 4.832-5.157 8.869-5.256 8.972-.099.103-2.632-4.06-5.629-9.252l-5.448-9.44 5.207-9.029c2.864-4.965 5.232-8.997 5.263-8.96.03.038 2.504 4.311 5.496 9.497m27.524 10.343c0 .083-2.3 4.151-5.111 9.041l-5.112 8.89-10.398.008c-5.72.004-10.399-.039-10.399-.095 0-.098 6.365-11.186 9.081-15.819l1.274-2.174h10.333c5.682 0 10.332.067 10.332.149" fill="#fff" fill-rule="evenodd"/></svg>