<svg width="122" height="140" fill="none" xmlns="http://www.w3.org/2000/svg"><path d="m50.997 5.964-10.309 5.931-.061 11.124-.062 11.124-9.353-5.407c-5.145-2.974-9.491-5.445-9.659-5.49-.251-.067-19.871 11.095-20.689 11.77C.666 35.18.61 37.843.61 47.069v11.843l9.506 5.494c5.228 3.021 9.496 5.573 9.485 5.669-.011.097-4.289 2.642-9.506 5.656L.61 81.21v11.824c0 11.009.025 11.844.356 12.126.565.482 20.187 11.757 20.451 11.752.131-.003 4.493-2.468 9.693-5.479l9.455-5.474.057 11.121.058 11.122 10.141 5.846c5.577 3.215 10.291 5.845 10.476 5.845.184 0 4.902-2.63 10.484-5.845l10.15-5.846.057-11.118.057-11.117 9.455 5.474c5.2 3.011 9.602 5.452 9.782 5.424.18-.027 4.915-2.7 10.523-5.94L122 105.036v-23.83l-9.484-5.479c-5.216-3.013-9.48-5.563-9.477-5.667.004-.105 4.272-2.652 9.484-5.662L122 58.926V35.204l-.559-.387c-.703-.487-19.158-11.144-19.826-11.448-.444-.202-1.4.301-10.031 5.287l-9.539 5.511-.059-11.136-.06-11.136-9.18-5.287a7250.325 7250.325 0 0 0-10.31-5.93L61.305.034l-10.308 5.93m19.117.869c4.773 2.752 8.892 5.138 9.153 5.303.459.29.182.47-8.133 5.286-4.735 2.742-8.899 5.127-9.254 5.3l-.646.315-9.145-5.266c-5.031-2.896-9.086-5.33-9.013-5.408.202-.217 18.002-10.512 18.193-10.523.092-.006 4.073 2.241 8.845 4.993M51.545 19.166l8.947 5.181.051 22.19c.029 12.204-.017 22.189-.101 22.189-.085-.001-4.225-2.361-9.202-5.246l-9.048-5.245-.052-22.226c-.041-17.758-.001-22.206.203-22.125.141.055 4.281 2.432 9.202 5.282M80.52 35.668c0 12.013.048 21.966.106 22.117.072.19-2.693 1.897-8.9 5.495-4.953 2.871-9.164 5.281-9.358 5.355-.334.129-.35-1.058-.301-22.075l.051-22.212 9.049-5.247c4.976-2.885 9.117-5.253 9.201-5.26.083-.008.152 9.814.152 21.827m-49.6-5.366c5.081 2.933 9.353 5.424 9.493 5.536.389.309.369 21.356-.02 21.263-.555-.133-37.353-21.576-37.233-21.696.368-.368 18.123-10.551 18.305-10.499.119.035 4.374 2.463 9.455 5.396m79.42-.229c5.015 2.897 9.09 5.344 9.055 5.439-.076.205-37.07 21.667-37.172 21.566-.038-.039-.078-4.822-.088-10.63l-.019-10.56 9.521-5.532c5.237-3.042 9.536-5.536 9.553-5.541.017-.004 4.135 2.362 9.15 5.258M21.507 47.975l18.355 10.632-9.195 5.281-9.196 5.281-.62-.31c-.34-.17-4.645-2.639-9.566-5.485l-8.947-5.176-.052-10.722-.053-10.722.459.295c.253.162 8.72 5.078 18.815 10.926m98.716 10.201c-.182.175-18.06 10.512-18.662 10.79-.34.157-1.966-.713-9.333-4.995-4.907-2.853-8.992-5.26-9.078-5.349-.087-.09 8.23-5.019 18.482-10.954l18.64-10.79.052 10.575c.029 5.816-.016 10.642-.101 10.723m-27.096 8.051a5634.475 5634.475 0 0 0 18.198 10.527c4.25 2.443 7.841 4.545 7.981 4.671.195.175-1.876 1.442-8.831 5.399-4.998 2.843-9.231 5.17-9.407 5.17-.363 0-38.035-21.611-38.035-21.82 0-.074 4.135-2.532 9.188-5.462l9.187-5.326.624.379c.342.208 5.335 3.116 11.095 6.462m-42.568-1.433c4.96 2.87 9.018 5.285 9.018 5.367 0 .172-37.458 21.742-38.006 21.885-.226.06-3.813-1.897-9.449-5.154-8.056-4.655-9.044-5.28-8.723-5.516.2-.146 6.447-3.772 13.884-8.056 21.723-12.515 23.874-13.743 24.071-13.743.103 0 4.245 2.348 9.205 5.217m10.034 17.332v10.552l-18.757 10.834c-10.317 5.959-18.964 10.966-19.217 11.127l-.459.293.052-10.714.053-10.715L41.277 82.55c10.456-6.025 19.08-10.959 19.164-10.965.084-.006.152 4.737.152 10.541m20.74.411 19.012 10.946.053 10.693.052 10.693-4.322-2.496-19.217-11.103-14.894-8.608V82.118c0-5.8.068-10.541.152-10.536.084.004 8.708 4.934 19.164 10.955m-69.235 6.078 8.337 4.821.053 10.622c.029 5.842-.004 10.622-.072 10.622-.068 0-4.186-2.347-9.152-5.216l-9.027-5.217V82.934l.762.43c.42.236 4.514 2.599 9.099 5.251m108.275 4.993v10.648l-9.019 5.212c-4.961 2.867-9.079 5.212-9.152 5.212-.073 0-.109-4.818-.08-10.707l.053-10.707 9.048-5.151c4.977-2.833 9.072-5.152 9.1-5.153.027-.001.05 4.79.05 10.646m-59.78 22.597c0 11.91-.039 21.655-.088 21.655-.048 0-4.189-2.371-9.201-5.27l-9.112-5.27v-22.283l9.048-5.239c4.977-2.881 9.117-5.241 9.201-5.243.084-.003.152 9.74.152 21.65M71.37 99.791l9.048 5.234v22.308l-9.112 5.263c-5.011 2.895-9.151 5.264-9.2 5.264-.049 0-.089-9.745-.089-21.655 0-11.91.068-21.653.152-21.652.084.002 4.224 2.359 9.201 5.238" fill="#fff" fill-rule="evenodd"/></svg>